<svg width="50" height="50" viewBox="0 0 50 50" fill="none" xmlns="http://www.w3.org/2000/svg">
<g clip-path="url(#clip0_308_122)">
<path d="M25 50C38.8071 50 50 38.8071 50 25C50 11.1929 38.8071 0 25 0C11.1929 0 0 11.1929 0 25C0 38.8071 11.1929 50 25 50Z" fill="#3B5999"/>
<path d="M31.2847 25.9782H26.8238V42.3211H20.065V25.9782H16.8506V20.2347H20.065V16.518C20.065 13.8602 21.3276 9.69824 26.8839 9.69824L31.8903 9.71919V15.2943H28.2579C27.662 15.2943 26.8242 15.5919 26.8242 16.8598V20.2401H31.8752L31.2847 25.9782Z" fill="white"/>
</g>
<defs>
<clipPath id="clip0_308_122">
<rect width="50" height="50" fill="white"/>
</clipPath>
</defs>
</svg>
