<?xml version="1.0" ?><!-- Uploaded to: SVG Repo, www.svgrepo.com, Generator: SVG Repo Mixer Tools -->
<svg width="800px" height="800px" viewBox="0 0 64 64" data-name="Layer 1" id="Layer_1" xmlns="http://www.w3.org/2000/svg"><defs><style>
      .cls-1 {
        fill: #e7ecef;
      }

      .cls-2 {
        fill: #8b8c89;
      }

      .cls-3 {
        fill: #bc6c25;
      }

      .cls-4 {
        fill: #a3cef1;
      }

      .cls-5 {
        fill: #dda15e;
      }

      .cls-6 {
        fill: #6096ba;
      }

      .cls-7 {
        fill: #274c77;
      }
    </style></defs><path class="cls-5" d="M26.58,39.04l-3,1.29c-1.01,.43-2.15,.43-3.15,0l-3-1.29c-1.47-.63-2.42-2.08-2.42-3.68v-5.36c0-3.31,2.69-6,6-6h2c3.31,0,6,2.69,6,6v5.36c0,1.6-.95,3.05-2.42,3.68Z"/><path class="cls-7" d="M35.14,45c-1.82-1.85-4.35-3-7.14-3h-3c0,1.66-1.34,3-3,3s-3-1.34-3-3h-3c-5.52,0-10,4.48-10,10v7H28l4-14h3.14Z"/><path class="cls-5" d="M17,55h2c1.1,0,2,.9,2,2v2h-4v-4h0Z"/><path class="cls-7" d="M12,31.73c-.29,.17-.64,.27-1,.27-1.1,0-2-.9-2-2s.9-2,2-2c.42,0,.81,.13,1.14,.36"/><path class="cls-7" d="M32,31.73c.29,.17,.64,.27,1,.27,1.1,0,2-.9,2-2s-.9-2-2-2c-.42,0-.81,.13-1.14,.36"/><path class="cls-3" d="M19,39.71l1.42,.61c1.01,.44,2.15,.44,3.16,0l1.42-.61v2.29c0,1.66-1.34,3-3,3s-3-1.34-3-3v-2.29Z"/><polyline class="cls-2" points="28 59 32 45 54 45 50 59"/><path class="cls-7" d="M28.4,27.38h-.01c-.57-.23-1.23-.38-2.06-.38-4.33,0-4.33,4-8.67,4-1.13,0-1.97-.27-2.66-.67v-.33c0-3.31,2.69-6,6-6h2c2.37,0,4.42,1.38,5.39,3.38h.01Z"/><path class="cls-1" d="M29,34.6v-4.6c0-3.31-2.69-6-6-6h-2c-3.31,0-6,2.69-6,6v4h-2c-.55,0-1-.45-1-1v-3c0-5.52,4.48-10,10-10,2.76,0,5.26,1.12,7.07,2.93s2.93,4.31,2.93,7.07v3.18c0,.48-.34,.89-.8,.98l-2.2,.44Z"/><path class="cls-4" d="M41,51c.55,0,1,.45,1,1s-.45,1-1,1v-2Z"/><path class="cls-6" d="M22,36h0c-.11-.54,.24-1.07,.78-1.18l8.22-1.64v-2.86c0-4.79-3.61-8.98-8.38-9.3-5.24-.35-9.62,3.81-9.62,8.98v3h2v2h-2c-1.1,0-2-.9-2-2v-2.68c0-5.72,4.24-10.74,9.94-11.27,6.54-.62,12.06,4.53,12.06,10.95v3.18c0,.95-.67,1.77-1.61,1.96l-8.22,1.64c-.54,.11-1.07-.24-1.18-.78Z"/><path class="cls-6" d="M22,59h-2v-2c0-.55-.45-1-1-1h-7c-.55,0-1-.45-1-1v-4c0-.27,.11-.52,.29-.71l1.29-1.29c.39-.39,1.02-.39,1.41,0h0c.39,.39,.39,1.02,0,1.41l-1,1v2.59h6c1.66,0,3,1.34,3,3v2Z"/><rect class="cls-4" height="2" width="50" x="4" y="59"/><path class="cls-7" d="M37,10.45l3.07-1.02c.72-.24,1.51-.05,2.05,.48l10.98,10.98c.54,.54,.72,1.33,.48,2.05l-1.02,3.07,4.24,4.24,2.64-4.39c.94-1.57,.7-3.59-.6-4.89L42.03,4.17c-1.3-1.3-3.31-1.55-4.89-.6l-4.39,2.64,4.24,4.24Z"/><path class="cls-4" d="M33.46,13.98c-.57-.57-.88-1.32-.88-2.12s.31-1.55,.88-2.12l1.41,1.42c-.19,.19-.29,.44-.29,.71s.1,.52,.29,.71l-1.41,1.42Z"/><path class="cls-4" d="M31.34,16.11c-2.34-2.34-2.34-6.15,0-8.49l1.41,1.41c-1.56,1.56-1.56,4.1,0,5.66l-1.41,1.41Z"/><path class="cls-4" d="M29.22,18.23c-3.51-3.51-3.51-9.22,0-12.73l1.41,1.41c-2.73,2.73-2.73,7.17,0,9.9l-1.41,1.41Z"/><path class="cls-4" d="M51.14,30.42c-.77,0-1.54-.29-2.12-.88l1.41-1.42c.39,.39,1.02,.39,1.42,0l1.41,1.42c-.58,.58-1.35,.88-2.12,.88Z"/><path class="cls-4" d="M51.14,33.42c-1.54,0-3.07-.58-4.24-1.75l1.41-1.41c1.56,1.56,4.1,1.56,5.66,0l1.41,1.41c-1.17,1.17-2.71,1.75-4.24,1.75Z"/><path class="cls-4" d="M51.14,36.42c-2.3,0-4.61-.88-6.36-2.63l1.41-1.41c2.73,2.73,7.17,2.73,9.9,0l1.41,1.41c-1.75,1.75-4.06,2.63-6.36,2.63Z"/></svg>