<svg width="50" height="50" viewBox="0 0 50 50" fill="none" xmlns="http://www.w3.org/2000/svg">
<g clip-path="url(#clip0_308_117)">
<path d="M25.0008 49.9996C38.8078 49.9996 50.0005 38.8068 50.0005 24.9998C50.0005 11.1928 38.8078 0 25.0008 0C11.1938 0 0.000976562 11.1928 0.000976562 24.9998C0.000976562 38.8068 11.1938 49.9996 25.0008 49.9996Z" fill="#55ACEE"/>
<path d="M40.313 17.9663C39.2416 18.4413 38.0892 18.7626 36.8806 18.9061C38.1146 18.1668 39.0616 16.997 39.5086 15.6008C38.3539 16.2858 37.0745 16.7826 35.7139 17.0505C34.6239 15.8896 33.0708 15.1641 31.3511 15.1641C28.0515 15.1641 25.3754 17.8402 25.3754 21.1397C25.3754 21.6081 25.4284 22.064 25.5309 22.5016C20.5647 22.2525 16.1613 19.8736 13.2138 16.2572C12.6995 17.1396 12.4045 18.1668 12.4045 19.2618C12.4045 21.3345 13.4602 23.1643 15.0627 24.2356C14.0837 24.2049 13.1616 23.9361 12.3563 23.4874C12.3559 23.5128 12.3559 23.5382 12.3559 23.5631C12.3559 26.4585 14.4166 28.8734 17.1497 29.422C16.6488 29.5593 16.1198 29.6319 15.5757 29.6319C15.1897 29.6319 14.8159 29.5949 14.4513 29.5254C15.2116 31.8989 17.418 33.6267 20.0335 33.6753C17.988 35.2782 15.4117 36.2333 12.6112 36.2333C12.13 36.2333 11.6531 36.2052 11.1865 36.1495C13.8296 37.8456 16.9714 38.8345 20.3459 38.8345C31.3372 38.8345 37.3481 29.7291 37.3481 21.8318C37.3481 21.5729 37.3423 21.3149 37.3307 21.0591C38.4992 20.2168 39.5121 19.1646 40.313 17.9663Z" fill="#F1F2F2"/>
</g>
<defs>
<clipPath id="clip0_308_117">
<rect width="50" height="50" fill="white"/>
</clipPath>
</defs>
</svg>
